<svg xmlns="http://www.w3.org/2000/svg" width="57" height="18" viewBox="0 0 57 18">
    <g fill="none" fill-rule="evenodd">
        <g>
            <g>
                <path d="M0 0H56.835V17.948H0z" transform="translate(-116 -57) translate(116 57)"/>
                <path fill="#FFF" d="M5.37 14.462c1.64 0 3.075-.478 4.174-1.115l1.594-5.625H6.023l-.59 2.263h2.151l-.446 1.498c-.382.175-.86.302-1.482.302-1.37 0-2.501-.812-2.501-2.374 0-2.055 1.545-3.792 3.792-3.792 1.195 0 2.103.494 2.757 1.147l2.071-2.007c-.765-.988-2.39-1.897-4.62-1.897C2.9 2.862 0 5.985 0 9.54c0 3.425 2.709 4.923 5.37 4.923zm10.532-9.624l.605-2.23h-3.155l-.605 2.23h3.155zm-2.597 9.401l2.31-8.62h-3.027l-2.31 8.62h3.027zm8.476-9.433l2.884-2.023-2.756-.908-2.454 2.931h2.326zm26.472-.937l2.884-2.024L48.38.937 45.926 3.87h2.327zM16.969 14.414c1.004 0 1.753-.414 2.486-1.1l-.239.925h2.98l1.274-4.748c.112-.43.176-.845.176-1.243 0-1.72-1.26-2.74-3.84-2.74-1.243 0-2.486.207-3.394.525l.43 2.2c.605-.24 1.514-.431 2.326-.431 1.052 0 1.482.366 1.482.924 0 .207-.048.382-.08.526l-.032.111c-.685-.207-1.402-.334-2.182-.334-2.279 0-3.793 1.147-3.793 3.043 0 1.434.988 2.342 2.406 2.342zm1.402-1.864c-.51 0-.86-.303-.86-.797 0-.78.621-1.242 1.577-1.242.415 0 .797.08 1.132.19l-.08.288c-.239.876-.988 1.561-1.769 1.561zm13.321 1.88c2.772 0 4.748-1.561 4.748-3.856 0-1.673-1.179-2.453-2.9-3.107-1.53-.605-1.864-.765-1.864-1.21 0-.447.462-.797 1.211-.797 1.131 0 2.103.494 2.948 1.227l1.912-2.136c-1.068-1.02-2.613-1.657-4.573-1.657-2.725 0-4.732 1.578-4.732 3.793 0 1.64 1.13 2.405 2.9 3.075 1.561.605 1.864.828 1.864 1.258 0 .51-.526.829-1.26.829-1.226 0-2.357-.51-3.44-1.514l-1.992 2.056c1.195 1.29 2.995 2.04 5.178 2.04zm9.815-9.624l1.593-.972 1.084.972h1.8l-1.338-2.613h-2.454l-2.74 2.613h2.055zm-.446 9.64c2.9 0 5.083-2.406 5.083-5.019 0-2.262-1.594-4-4.239-4-2.884 0-5.066 2.407-5.066 5.004 0 2.278 1.593 4.015 4.222 4.015zm.175-2.517c-.892 0-1.498-.622-1.498-1.61 0-1.115.813-2.374 2.008-2.374.892 0 1.498.622 1.498 1.594 0 1.13-.813 2.39-2.008 2.39zm9.066 2.517c1.721 0 2.805-.669 3.681-1.689l-1.848-1.61c-.526.527-.988.798-1.625.798-.75 0-1.323-.558-1.323-1.434 0-1.307.924-2.566 2.071-2.566.781 0 1.196.415 1.482 1.084l2.374-1.227c-.462-1.323-1.657-2.358-3.664-2.358-2.868 0-5.179 2.326-5.179 5.226 0 2.326 1.705 3.776 4.031 3.776z" transform="translate(-116 -57) translate(116 57)"/>
            </g>
        </g>
    </g>
</svg>
