<svg xmlns="http://www.w3.org/2000/svg" width="73" height="18" viewBox="0 0 73 18">
    <g fill="none" fill-rule="evenodd">
        <g>
            <g>
                <g>
                    <path d="M0 0H71.791V17.948H0z" transform="translate(-187 -57) translate(116 57) translate(71.15)"/>
                    <path fill="#FFF" d="M63.99 5.619l.35 5.178 2.9-5.178h3.187L65.09 14.19c-1.243 1.944-2.375 2.645-4.063 2.645-1.004 0-1.705-.239-2.295-.621L60.086 14c.399.287.813.43 1.195.43.287 0 .494-.063.75-.318l-1.116-8.493h3.075zm-46.43-.191c2.645 0 4.238 1.737 4.238 4 0 2.612-2.183 5.018-5.083 5.018-2.629 0-4.222-1.737-4.222-4.015 0-2.597 2.183-5.003 5.067-5.003zm39.069.08c2.581 0 3.84 1.02 3.84 2.74 0 .319-.041.648-.114.987l-.061.256-1.275 4.748h-2.98l.24-.924c-.734.685-1.483 1.1-2.486 1.1-1.418 0-2.406-.909-2.406-2.343 0-1.896 1.513-3.043 3.792-3.043.67 0 1.291.093 1.887.25l.296.084.032-.111c.032-.144.08-.319.08-.526 0-.558-.43-.924-1.483-.924-.722 0-1.52.15-2.113.352l-.213.078-.43-2.199c.908-.318 2.151-.526 3.394-.526zM6.66 3.085L5.53 7.26h3.935l1.116-4.174h3.107l-2.996 11.153H7.585l1.147-4.238H4.797l-1.132 4.238H.558L3.554 3.086H6.66zm27.342 2.342c1.641 0 2.55.988 2.55 2.565 0 .462-.112 1.02-.255 1.562l-1.26 4.684h-3.01l1.194-4.51c.064-.222.112-.51.112-.7 0-.574-.287-.908-.924-.908-.813 0-1.307.573-1.578 1.561l-1.227 4.557h-3.027l1.211-4.51c.064-.222.111-.51.111-.7 0-.574-.302-.908-.924-.908-.812 0-1.306.573-1.577 1.561l-1.227 4.557h-3.027l2.31-8.62h3.027l-.255.956c.59-.606 1.387-1.147 2.406-1.147 1.18 0 1.928.605 2.247 1.498.813-.925 1.864-1.498 3.123-1.498zm11.409-2.342l2.884 6.198 1.673-6.198h3.075l-2.996 11.153H47.34l-3.012-6.421-1.72 6.421h-3.076l2.996-11.153h2.884zm10.5 7.425c-.956 0-1.578.462-1.578 1.242 0 .494.35.797.86.797.736 0 1.442-.607 1.722-1.409l.047-.152.08-.287c-.335-.112-.717-.191-1.131-.191zM17.4 7.945c-1.195 0-2.007 1.259-2.007 2.374 0 .988.605 1.61 1.497 1.61 1.195 0 2.008-1.26 2.008-2.39 0-.972-.605-1.594-1.498-1.594zm2.9-5.752l1.339 2.613h-1.8l-1.084-.972-1.594.972h-2.055l2.74-2.613H20.3z" transform="translate(-187 -57) translate(116 57) translate(71.15)"/>
                </g>
            </g>
        </g>
    </g>
</svg>
